<mxfile host="app.diagrams.net" agent="Mozilla/5.0 (Windows NT 10.0; Win64; x64) AppleWebKit/537.36 (KHTML, like Gecko) Chrome/129.0.0.0 Safari/537.36" version="24.7.17">
  <diagram name="Page-1" id="2YBvvXClWsGukQMizWep">
    <mxGraphModel dx="1644" dy="446" grid="1" gridSize="10" guides="1" tooltips="1" connect="1" arrows="1" fold="1" page="1" pageScale="1" pageWidth="850" pageHeight="1100" math="0" shadow="0">
      <root>
        <mxCell id="0" />
        <mxCell id="1" parent="0" />
        <mxCell id="aM9ryv3xv72pqoxQDRHE-7" value="Cek Ketersediaan Produk" style="html=1;verticalAlign=bottom;endArrow=block;edgeStyle=elbowEdgeStyle;elbow=vertical;curved=0;rounded=0;" parent="1" edge="1">
          <mxGeometry relative="1" as="geometry">
            <mxPoint x="90" y="160" as="sourcePoint" />
            <Array as="points">
              <mxPoint x="180" y="160" />
            </Array>
            <mxPoint x="430" y="160" as="targetPoint" />
          </mxGeometry>
        </mxCell>
        <mxCell id="aM9ryv3xv72pqoxQDRHE-8" value="Produk Tersedia" style="html=1;verticalAlign=bottom;endArrow=open;dashed=1;endSize=8;edgeStyle=elbowEdgeStyle;elbow=vertical;curved=0;rounded=0;" parent="1" edge="1">
          <mxGeometry relative="1" as="geometry">
            <mxPoint x="90" y="190" as="targetPoint" />
            <Array as="points">
              <mxPoint x="190" y="190" />
            </Array>
            <mxPoint x="420" y="190" as="sourcePoint" />
            <mxPoint as="offset" />
          </mxGeometry>
        </mxCell>
        <mxCell id="cTbokmKVRTJ9u9vNCsnN-2" value="Buat Faktur" style="html=1;verticalAlign=bottom;endArrow=block;edgeStyle=elbowEdgeStyle;elbow=vertical;curved=0;rounded=0;" edge="1" parent="1">
          <mxGeometry relative="1" as="geometry">
            <mxPoint x="90" y="220" as="sourcePoint" />
            <Array as="points">
              <mxPoint x="185" y="220" />
            </Array>
            <mxPoint x="260" y="220" as="targetPoint" />
          </mxGeometry>
        </mxCell>
        <mxCell id="cTbokmKVRTJ9u9vNCsnN-3" value="Konfirmasi Pesanan" style="html=1;verticalAlign=bottom;endArrow=open;dashed=1;endSize=8;edgeStyle=elbowEdgeStyle;elbow=vertical;curved=0;rounded=0;" edge="1" parent="1">
          <mxGeometry relative="1" as="geometry">
            <mxPoint x="-40" y="260" as="targetPoint" />
            <Array as="points">
              <mxPoint x="105" y="260" />
            </Array>
            <mxPoint x="260" y="260" as="sourcePoint" />
            <mxPoint as="offset" />
          </mxGeometry>
        </mxCell>
        <mxCell id="cTbokmKVRTJ9u9vNCsnN-7" style="edgeStyle=orthogonalEdgeStyle;rounded=0;orthogonalLoop=1;jettySize=auto;html=1;endArrow=none;endFill=0;" edge="1" parent="1" source="cTbokmKVRTJ9u9vNCsnN-5" target="cTbokmKVRTJ9u9vNCsnN-6">
          <mxGeometry relative="1" as="geometry" />
        </mxCell>
        <mxCell id="cTbokmKVRTJ9u9vNCsnN-5" value="Admin" style="rounded=0;whiteSpace=wrap;html=1;" vertex="1" parent="1">
          <mxGeometry x="200" y="20" width="120" height="60" as="geometry" />
        </mxCell>
        <mxCell id="cTbokmKVRTJ9u9vNCsnN-6" value="Admin" style="rounded=0;whiteSpace=wrap;html=1;" vertex="1" parent="1">
          <mxGeometry x="200" y="290" width="120" height="60" as="geometry" />
        </mxCell>
        <mxCell id="cTbokmKVRTJ9u9vNCsnN-10" style="edgeStyle=orthogonalEdgeStyle;rounded=0;orthogonalLoop=1;jettySize=auto;html=1;entryX=0.5;entryY=0;entryDx=0;entryDy=0;endArrow=none;endFill=0;" edge="1" parent="1" source="cTbokmKVRTJ9u9vNCsnN-8" target="cTbokmKVRTJ9u9vNCsnN-9">
          <mxGeometry relative="1" as="geometry" />
        </mxCell>
        <mxCell id="cTbokmKVRTJ9u9vNCsnN-8" value="Inventaris" style="rounded=0;whiteSpace=wrap;html=1;" vertex="1" parent="1">
          <mxGeometry x="365" y="20" width="120" height="60" as="geometry" />
        </mxCell>
        <mxCell id="cTbokmKVRTJ9u9vNCsnN-9" value="Inventaris" style="rounded=0;whiteSpace=wrap;html=1;" vertex="1" parent="1">
          <mxGeometry x="365" y="290" width="120" height="60" as="geometry" />
        </mxCell>
        <mxCell id="cTbokmKVRTJ9u9vNCsnN-13" style="edgeStyle=orthogonalEdgeStyle;rounded=0;orthogonalLoop=1;jettySize=auto;html=1;endArrow=none;endFill=0;" edge="1" parent="1" source="cTbokmKVRTJ9u9vNCsnN-11" target="cTbokmKVRTJ9u9vNCsnN-12">
          <mxGeometry relative="1" as="geometry" />
        </mxCell>
        <mxCell id="cTbokmKVRTJ9u9vNCsnN-11" value="Sistem" style="rounded=0;whiteSpace=wrap;html=1;" vertex="1" parent="1">
          <mxGeometry x="30" y="20" width="120" height="60" as="geometry" />
        </mxCell>
        <mxCell id="cTbokmKVRTJ9u9vNCsnN-12" value="Sistem" style="rounded=0;whiteSpace=wrap;html=1;" vertex="1" parent="1">
          <mxGeometry x="30" y="290" width="120" height="60" as="geometry" />
        </mxCell>
        <mxCell id="cTbokmKVRTJ9u9vNCsnN-14" value="Actor" style="shape=umlActor;verticalLabelPosition=bottom;verticalAlign=top;outlineConnect=0;fontColor=#ffffff;" vertex="1" parent="1">
          <mxGeometry x="-60" y="280" width="30" height="60" as="geometry" />
        </mxCell>
        <mxCell id="cTbokmKVRTJ9u9vNCsnN-17" value="Pelanggan" style="text;html=1;align=center;verticalAlign=middle;whiteSpace=wrap;rounded=0;" vertex="1" parent="1">
          <mxGeometry x="-75" y="340" width="60" height="30" as="geometry" />
        </mxCell>
        <mxCell id="cTbokmKVRTJ9u9vNCsnN-18" value="Actor" style="shape=umlActor;verticalLabelPosition=bottom;verticalAlign=top;html=1;outlineConnect=0;fontColor=#F2F2F2;" vertex="1" parent="1">
          <mxGeometry x="-60" y="20" width="30" height="60" as="geometry" />
        </mxCell>
        <mxCell id="cTbokmKVRTJ9u9vNCsnN-20" value="Pelanggan" style="text;html=1;align=center;verticalAlign=middle;whiteSpace=wrap;rounded=0;" vertex="1" parent="1">
          <mxGeometry x="-75" y="80" width="60" height="30" as="geometry" />
        </mxCell>
        <mxCell id="cTbokmKVRTJ9u9vNCsnN-23" value="" style="endArrow=classic;html=1;rounded=0;" edge="1" parent="1">
          <mxGeometry width="50" height="50" relative="1" as="geometry">
            <mxPoint x="-40" y="130" as="sourcePoint" />
            <mxPoint x="90" y="130" as="targetPoint" />
          </mxGeometry>
        </mxCell>
        <mxCell id="cTbokmKVRTJ9u9vNCsnN-25" value="Memasukkan Pesanan" style="text;html=1;align=center;verticalAlign=middle;whiteSpace=wrap;rounded=0;" vertex="1" parent="1">
          <mxGeometry x="-40" y="110" width="130" height="20" as="geometry" />
        </mxCell>
        <mxCell id="cTbokmKVRTJ9u9vNCsnN-26" style="edgeStyle=orthogonalEdgeStyle;rounded=0;orthogonalLoop=1;jettySize=auto;html=1;entryX=0.5;entryY=0;entryDx=0;entryDy=0;entryPerimeter=0;endArrow=none;endFill=0;" edge="1" parent="1" source="cTbokmKVRTJ9u9vNCsnN-20" target="cTbokmKVRTJ9u9vNCsnN-14">
          <mxGeometry relative="1" as="geometry" />
        </mxCell>
      </root>
    </mxGraphModel>
  </diagram>
</mxfile>
